<?xml version="1.0" encoding="UTF-8" standalone="no"?>
<!-- Created with Inkscape (http://www.inkscape.org/) -->
<!-- -->

<svg
   width="800.58978mm"
   height="260.68491mm"
   viewBox="0 0 2836.7355 923.68666"
   id="svg2"
   version="1.1"
   inkscape:version="1.1.2 (0a00cf5339, 2022-02-04)"
   sodipodi:docname="logo-final.svg"
   xmlns:inkscape="http://www.inkscape.org/namespaces/inkscape"
   xmlns:sodipodi="http://sodipodi.sourceforge.net/DTD/sodipodi-0.dtd"
   xmlns:xlink="http://www.w3.org/1999/xlink"
   xmlns="http://www.w3.org/2000/svg"
   xmlns:svg="http://www.w3.org/2000/svg"
   xmlns:rdf="http://www.w3.org/1999/02/22-rdf-syntax-ns#"
   xmlns:cc="http://creativecommons.org/ns#"
   xmlns:dc="http://purl.org/dc/elements/1.1/">
  <defs
     id="defs4">
    <linearGradient
       inkscape:collect="always"
       id="linearGradient41414">
      <stop
         style="stop-color:#000000;stop-opacity:1"
         offset="0"
         id="stop41410" />
      <stop
         style="stop-color:#7ebae4;stop-opacity:1"
         offset="1"
         id="stop41412" />
    </linearGradient>
    <linearGradient
       inkscape:collect="always"
       id="linearGradient33992">
      <stop
         style="stop-color:#000000;stop-opacity:1"
         offset="0"
         id="stop33988" />
      <stop
         style="stop-color:#000000;stop-opacity:1"
         offset="0.28905299"
         id="stop1399" />
      <stop
         style="stop-color:#5277c3;stop-opacity:1"
         offset="0.641105"
         id="stop33994" />
      <stop
         style="stop-color:#7ebae4;stop-opacity:1"
         offset="1"
         id="stop33990" />
    </linearGradient>
    <linearGradient
       inkscape:collect="always"
       id="linearGradient26528">
      <stop
         style="stop-color:#000000;stop-opacity:1"
         offset="0"
         id="stop26524" />
      <stop
         style="stop-color:#5277c3;stop-opacity:1"
         offset="1"
         id="stop26526" />
    </linearGradient>
    <rect
       x="630.43011"
       y="70.620071"
       width="1094.255"
       height="356.97659"
       id="rect14371" />
    <rect
       x="964.49817"
       y="93.27179"
       width="248.85883"
       height="189.4556"
       id="rect6177" />
    <linearGradient
       id="linearGradient5960-5-4-7"
       inkscape:collect="always">
      <stop
         id="stop5962"
         offset="0"
         style="stop-color:#637ddf;stop-opacity:1" />
      <stop
         style="stop-color:#649afa;stop-opacity:1"
         offset="0.23168644"
         id="stop5964" />
      <stop
         id="stop5966"
         offset="1"
         style="stop-color:#719efa;stop-opacity:1" />
    </linearGradient>
    <linearGradient
       inkscape:collect="always"
       xlink:href="#linearGradient5960-5-4-7"
       id="linearGradient7926"
       x1="307.89404"
       y1="444.84772"
       x2="2928.2065"
       y2="444.84772"
       gradientUnits="userSpaceOnUse"
       gradientTransform="translate(-266.00032)" />
    <linearGradient
       inkscape:collect="always"
       xlink:href="#linearGradient26528"
       id="linearGradient8669"
       x1="41.893745"
       y1="444.84772"
       x2="2662.2063"
       y2="444.84772"
       gradientUnits="userSpaceOnUse" />
    <linearGradient
       inkscape:collect="always"
       xlink:href="#linearGradient41414"
       id="linearGradient9120"
       gradientUnits="userSpaceOnUse"
       gradientTransform="translate(-261.4663,-19.943323)"
       x1="307.89404"
       y1="444.84772"
       x2="2928.2065"
       y2="444.84772" />
    <linearGradient
       inkscape:collect="always"
       xlink:href="#linearGradient33992"
       id="linearGradient30138"
       gradientUnits="userSpaceOnUse"
       x1="41.893745"
       y1="444.84772"
       x2="2662.2063"
       y2="444.84772"
       gradientTransform="translate(4.5339825,-19.943323)" />
  </defs>
  <sodipodi:namedview
     id="base"
     pagecolor="#ffffff"
     bordercolor="#666666"
     borderopacity="1.0"
     inkscape:pageopacity="0.0"
     inkscape:pageshadow="2"
     inkscape:zoom="0.4546759"
     inkscape:cx="1871.6629"
     inkscape:cy="600.42769"
     inkscape:document-units="px"
     inkscape:current-layer="layer1"
     showgrid="false"
     inkscape:window-width="1920"
     inkscape:window-height="1022"
     inkscape:window-x="0"
     inkscape:window-y="0"
     inkscape:window-maximized="1"
     inkscape:snap-global="true"
     fit-margin-top="0"
     fit-margin-left="0"
     fit-margin-right="0"
     fit-margin-bottom="0"
     inkscape:pagecheckerboard="0"
     units="in"
     width="700.58978mm" />
  <metadata
     id="metadata7">
    <rdf:RDF>
      <cc:Work
         rdf:about="">
        <dc:format>image/svg+xml</dc:format>
        <dc:type
           rdf:resource="http://purl.org/dc/dcmitype/StillImage" />
      </cc:Work>
    </rdf:RDF>
  </metadata>
  <g
     style="display:inline"
     inkscape:label="text-vegur"
     id="g5329"
     inkscape:groupmode="layer"
     transform="translate(-132.5822,958.04022)">
    <text
       xml:space="preserve"
       transform="matrix(0.9375,0,0,0.9375,132.5822,-958.04022)"
       id="text6175"
       style="font-style:normal;font-weight:normal;font-size:40px;line-height:1.25;font-family:sans-serif;white-space:pre;shape-inside:url(#rect6177);fill:#000000;fill-opacity:1;stroke:none" />
    <text
       xml:space="preserve"
       transform="matrix(0.9375,0,0,0.9375,132.5822,-958.04022)"
       id="text14369"
       style="font-size:24px;line-height:1.25;font-family:Vegur;-inkscape-font-specification:'Vegur, Normal';font-variant-ligatures:none;white-space:pre;shape-inside:url(#rect14371)" />
    <g
       inkscape:label="0"
       id="g746"
       transform="matrix(0.08581954,0,0,0.08556798,-579.4072,-2390.6747)">
      <path
         style="fill:none;stroke:#000000"
         d="M 250.874,672.937 229.121,635.259"
         id="path458" />
      <path
         style="fill:none;stroke:#000000"
         d="M 229.121,635.259 128.395,557.972"
         id="path460" />
      <path
         style="fill:none;stroke:#000000"
         d="M 128.395,557.972 146.051,423.863"
         id="path462" />
      <path
         style="fill:none;stroke:#000000"
         d="M 146.051,423.863 71.754,409.085"
         id="path464" />
      <path
         style="fill:none;stroke:#000000"
         d="m 71.754,409.085 -12.6059,95.75"
         id="path466" />
      <path
         style="fill:none;stroke:#000000"
         d="m 59.1481,504.835 -97.9892,-75.19"
         id="path468" />
      <path
         style="fill:none;stroke:#000000"
         d="m -38.8411,429.645 -46.0169,59.97"
         id="path470" />
      <path
         style="fill:none;stroke:#000000"
         d="m -84.858,489.615 299.85,230.083"
         id="path472" />
      <path
         style="fill:none;stroke:#000000"
         d="m 214.992,719.698 35.882,-46.761"
         id="path474" />
      <path
         style="fill:none;stroke:#000000"
         d="M 59.729,611.153 25.2138,584.67"
         id="path476" />
      <path
         style="fill:none;stroke:#000000"
         d="M 25.2138,584.67 -97.4219,551.807"
         id="path478" />
      <path
         style="fill:none;stroke:#000000"
         d="M -97.4219,551.807 -132.43,421.153"
         id="path480" />
      <path
         style="fill:none;stroke:#000000"
         d="m -132.43,421.153 -74.298,14.778"
         id="path482" />
      <path
         style="fill:none;stroke:#000000"
         d="m -206.728,435.931 24.996,93.286"
         id="path484" />
      <path
         style="fill:none;stroke:#000000"
         d="M -181.732,529.217 -301.036,497.25"
         id="path486" />
      <path
         style="fill:none;stroke:#000000"
         d="m -301.036,497.25 -19.565,73.016"
         id="path488" />
      <path
         style="fill:none;stroke:#000000"
         d="M -320.601,570.266 44.4737,668.088"
         id="path490" />
      <path
         style="fill:none;stroke:#000000"
         d="M 44.4737,668.088 59.729,611.153"
         id="path492" />
      <path
         style="fill:none;stroke:#000000"
         d="m 403.824,803.164 -5.677,-43.133"
         id="path494" />
      <path
         style="fill:none;stroke:#000000"
         d="M 398.147,760.031 334.666,650.079"
         id="path496" />
      <path
         style="fill:none;stroke:#000000"
         d="M 334.666,650.079 402.297,532.936"
         id="path498" />
      <path
         style="fill:none;stroke:#000000"
         d="M 402.297,532.936 339.312,490.851"
         id="path500" />
      <path
         style="fill:none;stroke:#000000"
         d="m 339.312,490.851 -48.288,83.637"
         id="path502" />
      <path
         style="fill:none;stroke:#000000"
         d="M 291.024,574.488 229.267,467.524"
         id="path504" />
      <path
         style="fill:none;stroke:#000000"
         d="m 229.267,467.524 -65.463,37.795"
         id="path506" />
      <path
         style="fill:none;stroke:#000000"
         d="M 163.804,505.319 352.78,832.635"
         id="path508" />
      <path
         style="fill:none;stroke:#000000"
         d="m 352.78,832.635 51.044,-29.471"
         id="path510" />
      <path
         style="fill:none;stroke:#000000"
         d="m -132.816,685.659 -7.693,-58.439"
         id="path512" />
      <path
         style="fill:none;stroke:#000000"
         d="m -140.509,627.22 -42.023,-11.259"
         id="path514" />
      <path
         style="fill:none;stroke:#000000"
         d="m -182.532,615.961 -125.876,16.573"
         id="path516" />
      <path
         style="fill:none;stroke:#000000"
         d="M -308.408,632.534 -390.75,525.222"
         id="path518" />
      <path
         style="fill:none;stroke:#000000"
         d="m -390.75,525.222 -62.986,42.085"
         id="path520" />
      <path
         style="fill:none;stroke:#000000"
         d="m -453.736,567.307 58.79,76.619"
         id="path522" />
      <path
         style="fill:none;stroke:#000000"
         d="m -394.946,643.926 -122.456,16.123"
         id="path524" />
      <path
         style="fill:none;stroke:#000000"
         d="m -517.402,660.049 9.868,74.944"
         id="path526" />
      <path
         style="fill:none;stroke:#000000"
         d="m -507.534,734.993 374.718,-49.334"
         id="path528" />
      <path
         style="fill:none;stroke:#000000"
         d="m 495.3,982.01 11.259,-42.022"
         id="path530" />
      <path
         style="fill:none;stroke:#000000"
         d="M 506.559,939.988 489.986,814.112"
         id="path532" />
      <path
         style="fill:none;stroke:#000000"
         d="M 489.986,814.112 597.298,731.769"
         id="path534" />
      <path
         style="fill:none;stroke:#000000"
         d="M 597.298,731.769 555.213,668.784"
         id="path536" />
      <path
         style="fill:none;stroke:#000000"
         d="m 555.213,668.784 -76.619,58.79"
         id="path538" />
      <path
         style="fill:none;stroke:#000000"
         d="M 478.594,727.574 462.471,605.117"
         id="path540" />
      <path
         style="fill:none;stroke:#000000"
         d="m 462.471,605.117 -74.945,9.869"
         id="path542" />
      <path
         style="fill:none;stroke:#000000"
         d="M 387.526,614.986 436.86,989.704"
         id="path544" />
      <path
         style="fill:none;stroke:#000000"
         d="M 436.86,989.704 495.3,982.01"
         id="path546" />
      <path
         style="fill:none;stroke:#000000"
         d="m -289.885,769.74 -29.471,-51.044"
         id="path548" />
      <path
         style="fill:none;stroke:#000000"
         d="m -319.356,718.696 -43.133,5.677"
         id="path550" />
      <path
         style="fill:none;stroke:#000000"
         d="m -362.489,724.373 -109.952,63.481"
         id="path552" />
      <path
         style="fill:none;stroke:#000000"
         d="M -472.441,787.854 -589.584,720.223"
         id="path554" />
      <path
         style="fill:none;stroke:#000000"
         d="m -589.584,720.223 -42.085,62.985"
         id="path556" />
      <path
         style="fill:none;stroke:#000000"
         d="m -631.669,783.208 83.638,48.288"
         id="path558" />
      <path
         style="fill:none;stroke:#000000"
         d="m -548.031,831.496 -106.965,61.757"
         id="path560" />
      <path
         style="fill:none;stroke:#000000"
         d="m -654.996,893.253 37.795,65.463"
         id="path562" />
      <path
         style="fill:none;stroke:#000000"
         d="M -617.201,958.716 -289.885,769.74"
         id="path564" />
      <path
         style="fill:none;stroke:#000000"
         d="M 537.849,1147.73 570.712,1025.1"
         id="path566" />
      <path
         style="fill:none;stroke:#000000"
         d="M 570.712,1025.1 701.367,990.089"
         id="path568" />
      <path
         style="fill:none;stroke:#000000"
         d="M 701.367,990.089 686.589,915.792"
         id="path570" />
      <path
         style="fill:none;stroke:#000000"
         d="m 686.589,915.792 -93.286,24.996"
         id="path572" />
      <path
         style="fill:none;stroke:#000000"
         d="M 593.303,940.788 625.27,821.483"
         id="path574" />
      <path
         style="fill:none;stroke:#000000"
         d="M 625.27,821.483 552.253,801.919"
         id="path576" />
      <path
         style="fill:none;stroke:#000000"
         d="M 552.253,801.919 454.431,1166.99"
         id="path578" />
      <path
         style="fill:none;stroke:#000000"
         d="m 454.431,1166.99 56.935,15.26"
         id="path580" />
      <path
         style="fill:none;stroke:#000000"
         d="m 511.366,1182.25 26.483,-34.52"
         id="path582" />
      <path
         style="fill:none;stroke:#000000"
         d="m -402.822,907.528 -46.76,-35.882"
         id="path584" />
      <path
         style="fill:none;stroke:#000000"
         d="m -449.582,871.646 -37.678,21.753"
         id="path586" />
      <path
         style="fill:none;stroke:#000000"
         d="m -487.26,893.399 -77.288,100.725"
         id="path588" />
      <path
         style="fill:none;stroke:#000000"
         d="M -564.548,994.124 -698.657,976.469"
         id="path590" />
      <path
         style="fill:none;stroke:#000000"
         d="m -698.657,976.469 -14.778,74.301"
         id="path592" />
      <path
         style="fill:none;stroke:#000000"
         d="m -713.435,1050.77 95.751,12.6"
         id="path594" />
      <path
         style="fill:none;stroke:#000000"
         d="m -617.684,1063.37 -75.19,97.99"
         id="path596" />
      <path
         style="fill:none;stroke:#000000"
         d="m -692.874,1161.36 59.969,46.02"
         id="path598" />
      <path
         style="fill:none;stroke:#000000"
         d="M -632.905,1207.38 -402.822,907.528"
         id="path600" />
      <path
         style="fill:none;stroke:#000000"
         d="m 487.26,1351.64 77.288,-100.72"
         id="path602" />
      <path
         style="fill:none;stroke:#000000"
         d="m 564.548,1250.92 134.109,17.65"
         id="path604" />
      <path
         style="fill:none;stroke:#000000"
         d="m 698.657,1268.57 14.778,-74.3"
         id="path606" />
      <path
         style="fill:none;stroke:#000000"
         d="m 713.435,1194.27 -95.751,-12.6"
         id="path608" />
      <path
         style="fill:none;stroke:#000000"
         d="m 617.684,1181.67 75.19,-97.99"
         id="path610" />
      <path
         style="fill:none;stroke:#000000"
         d="m 692.874,1083.68 -59.969,-46.02"
         id="path612" />
      <path
         style="fill:none;stroke:#000000"
         d="M 632.905,1037.66 402.822,1337.51"
         id="path614" />
      <path
         style="fill:none;stroke:#000000"
         d="m 402.822,1337.51 46.76,35.88"
         id="path616" />
      <path
         style="fill:none;stroke:#000000"
         d="m 449.582,1373.39 37.678,-21.75"
         id="path618" />
      <path
         style="fill:none;stroke:#000000"
         d="m -454.431,1078.05 -56.935,-15.26"
         id="path620" />
      <path
         style="fill:none;stroke:#000000"
         d="m -511.366,1062.79 -26.483,34.52"
         id="path622" />
      <path
         style="fill:none;stroke:#000000"
         d="m -537.849,1097.31 -32.863,122.63"
         id="path624" />
      <path
         style="fill:none;stroke:#000000"
         d="m -570.712,1219.94 -130.655,35.01"
         id="path626" />
      <path
         style="fill:none;stroke:#000000"
         d="m -701.367,1254.95 14.778,74.3"
         id="path628" />
      <path
         style="fill:none;stroke:#000000"
         d="m -686.589,1329.25 93.286,-25"
         id="path630" />
      <path
         style="fill:none;stroke:#000000"
         d="m -593.303,1304.25 -31.967,119.31"
         id="path632" />
      <path
         style="fill:none;stroke:#000000"
         d="m -625.27,1423.56 73.017,19.56"
         id="path634" />
      <path
         style="fill:none;stroke:#000000"
         d="m -552.253,1443.12 97.822,-365.07"
         id="path636" />
      <path
         style="fill:none;stroke:#000000"
         d="M -387.526,1630.05 -436.86,1255.34"
         id="path638" />
      <path
         style="fill:none;stroke:#000000"
         d="m -436.86,1255.34 -58.44,7.69"
         id="path640" />
      <path
         style="fill:none;stroke:#000000"
         d="m -495.3,1263.03 -11.259,42.02"
         id="path642" />
      <path
         style="fill:none;stroke:#000000"
         d="m -506.559,1305.05 16.573,125.88"
         id="path644" />
      <path
         style="fill:none;stroke:#000000"
         d="m -489.986,1430.93 -107.312,82.34"
         id="path646" />
      <path
         style="fill:none;stroke:#000000"
         d="m -597.298,1513.27 42.085,62.99"
         id="path648" />
      <path
         style="fill:none;stroke:#000000"
         d="m -555.213,1576.26 76.619,-58.79"
         id="path650" />
      <path
         style="fill:none;stroke:#000000"
         d="m -478.594,1517.47 16.123,122.45"
         id="path652" />
      <path
         style="fill:none;stroke:#000000"
         d="m -462.471,1639.92 74.945,-9.87"
         id="path654" />
      <path
         style="fill:none;stroke:#000000"
         d="m 362.489,1520.67 109.952,-63.48"
         id="path656" />
      <path
         style="fill:none;stroke:#000000"
         d="m 472.441,1457.19 117.143,67.63"
         id="path658" />
      <path
         style="fill:none;stroke:#000000"
         d="m 589.584,1524.82 42.085,-62.99"
         id="path660" />
      <path
         style="fill:none;stroke:#000000"
         d="m 631.669,1461.83 -83.638,-48.29"
         id="path662" />
      <path
         style="fill:none;stroke:#000000"
         d="m 548.031,1413.54 106.965,-61.75"
         id="path664" />
      <path
         style="fill:none;stroke:#000000"
         d="m 654.996,1351.79 -37.795,-65.47"
         id="path666" />
      <path
         style="fill:none;stroke:#000000"
         d="M 617.201,1286.32 289.885,1475.3"
         id="path668" />
      <path
         style="fill:none;stroke:#000000"
         d="m 289.885,1475.3 29.471,51.04"
         id="path670" />
      <path
         style="fill:none;stroke:#000000"
         d="m 319.356,1526.34 43.133,-5.67"
         id="path672" />
      <path
         style="fill:none;stroke:#000000"
         d="M -163.804,1739.72 -352.78,1412.4"
         id="path674" />
      <path
         style="fill:none;stroke:#000000"
         d="m -352.78,1412.4 -51.044,29.48"
         id="path676" />
      <path
         style="fill:none;stroke:#000000"
         d="m -403.824,1441.88 5.677,43.13"
         id="path678" />
      <path
         style="fill:none;stroke:#000000"
         d="m -398.147,1485.01 63.481,109.95"
         id="path680" />
      <path
         style="fill:none;stroke:#000000"
         d="m -334.666,1594.96 -67.631,117.14"
         id="path682" />
      <path
         style="fill:none;stroke:#000000"
         d="m -402.297,1712.1 62.985,42.09"
         id="path684" />
      <path
         style="fill:none;stroke:#000000"
         d="m -339.312,1754.19 48.288,-83.64"
         id="path686" />
      <path
         style="fill:none;stroke:#000000"
         d="m -291.024,1670.55 61.757,106.97"
         id="path688" />
      <path
         style="fill:none;stroke:#000000"
         d="m -229.267,1777.52 65.463,-37.8"
         id="path690" />
      <path
         style="fill:none;stroke:#000000"
         d="m 453.736,1677.73 -58.79,-76.62"
         id="path692" />
      <path
         style="fill:none;stroke:#000000"
         d="m 394.946,1601.11 122.456,-16.12"
         id="path694" />
      <path
         style="fill:none;stroke:#000000"
         d="m 517.402,1584.99 -9.868,-74.94"
         id="path696" />
      <path
         style="fill:none;stroke:#000000"
         d="m 507.534,1510.05 -374.718,49.33"
         id="path698" />
      <path
         style="fill:none;stroke:#000000"
         d="m 132.816,1559.38 7.693,58.44"
         id="path700" />
      <path
         style="fill:none;stroke:#000000"
         d="m 140.509,1617.82 42.023,11.26"
         id="path702" />
      <path
         style="fill:none;stroke:#000000"
         d="m 182.532,1629.08 125.876,-16.57"
         id="path704" />
      <path
         style="fill:none;stroke:#000000"
         d="m 308.408,1612.51 82.342,107.31"
         id="path706" />
      <path
         style="fill:none;stroke:#000000"
         d="m 390.75,1719.82 62.986,-42.09"
         id="path708" />
      <path
         style="fill:none;stroke:#000000"
         d="m -59.1481,1740.2 97.9892,75.19"
         id="path710" />
      <path
         style="fill:none;stroke:#000000"
         d="M 38.8411,1815.39 84.858,1755.42"
         id="path712" />
      <path
         style="fill:none;stroke:#000000"
         d="m 84.858,1755.42 -299.85,-230.08"
         id="path714" />
      <path
         style="fill:none;stroke:#000000"
         d="m -214.992,1525.34 -35.882,46.76"
         id="path716" />
      <path
         style="fill:none;stroke:#000000"
         d="m -250.874,1572.1 21.753,37.68"
         id="path718" />
      <path
         style="fill:none;stroke:#000000"
         d="m -229.121,1609.78 100.726,77.29"
         id="path720" />
      <path
         style="fill:none;stroke:#000000"
         d="m -128.395,1687.07 -17.656,134.11"
         id="path722" />
      <path
         style="fill:none;stroke:#000000"
         d="m -146.051,1821.18 74.297,14.77"
         id="path724" />
      <path
         style="fill:none;stroke:#000000"
         d="m -71.754,1835.95 12.6059,-95.75"
         id="path726" />
      <path
         style="fill:none;stroke:#000000"
         d="m 206.728,1809.11 -24.996,-93.29"
         id="path728" />
      <path
         style="fill:none;stroke:#000000"
         d="m 181.732,1715.82 119.304,31.97"
         id="path730" />
      <path
         style="fill:none;stroke:#000000"
         d="m 301.036,1747.79 19.565,-73.02"
         id="path732" />
      <path
         style="fill:none;stroke:#000000"
         d="M 320.601,1674.77 -44.4737,1576.95"
         id="path734" />
      <path
         style="fill:none;stroke:#000000"
         d="m -44.4737,1576.95 -15.2553,56.94"
         id="path736" />
      <path
         style="fill:none;stroke:#000000"
         d="m -59.729,1633.89 34.5152,26.48"
         id="path738" />
      <path
         style="fill:none;stroke:#000000"
         d="m -25.2138,1660.37 122.6357,32.86"
         id="path740" />
      <path
         style="fill:none;stroke:#000000"
         d="M 97.4219,1693.23 132.43,1823.89"
         id="path742" />
      <path
         style="fill:none;stroke:#000000"
         d="m 132.43,1823.89 74.298,-14.78"
         id="path744" />
    </g>
    <g
       inkscape:label="0"
       id="g1221"
       transform="matrix(0.62232417,0,0,0.62236128,647.74137,-1194.6171)">
      <path
         style="fill:none;stroke:#000000"
         d="M 250.874,672.937 229.121,635.259"
         id="path933" />
      <path
         style="fill:none;stroke:#000000"
         d="M 229.121,635.259 128.395,557.972"
         id="path935" />
      <path
         style="fill:none;stroke:#000000"
         d="M 128.395,557.972 146.051,423.863"
         id="path937" />
      <path
         style="fill:none;stroke:#000000"
         d="M 146.051,423.863 71.754,409.085"
         id="path939" />
      <path
         style="fill:none;stroke:#000000"
         d="m 71.754,409.085 -12.6059,95.75"
         id="path941" />
      <path
         style="fill:none;stroke:#000000"
         d="m 59.1481,504.835 -97.9892,-75.19"
         id="path943" />
      <path
         style="fill:none;stroke:#000000"
         d="m -38.8411,429.645 -46.0169,59.97"
         id="path945" />
      <path
         style="fill:none;stroke:#000000"
         d="m -84.858,489.615 299.85,230.083"
         id="path947" />
      <path
         style="fill:none;stroke:#000000"
         d="m 214.992,719.698 35.882,-46.761"
         id="path949" />
      <path
         style="fill:none;stroke:#000000"
         d="M 59.729,611.153 25.2138,584.67"
         id="path951" />
      <path
         style="fill:none;stroke:#000000"
         d="M 25.2138,584.67 -97.4219,551.807"
         id="path953" />
      <path
         style="fill:none;stroke:#000000"
         d="M -97.4219,551.807 -132.43,421.153"
         id="path955" />
      <path
         style="fill:none;stroke:#000000"
         d="m -132.43,421.153 -74.298,14.778"
         id="path957" />
      <path
         style="fill:none;stroke:#000000"
         d="m -206.728,435.931 24.996,93.286"
         id="path959" />
      <path
         style="fill:none;stroke:#000000"
         d="M -181.732,529.217 -301.036,497.25"
         id="path961" />
      <path
         style="fill:none;stroke:#000000"
         d="m -301.036,497.25 -19.565,73.016"
         id="path963" />
      <path
         style="fill:none;stroke:#000000"
         d="M -320.601,570.266 44.4737,668.088"
         id="path965" />
      <path
         style="fill:none;stroke:#000000"
         d="M 44.4737,668.088 59.729,611.153"
         id="path967" />
      <path
         style="fill:none;stroke:#000000"
         d="m 403.824,803.164 -5.677,-43.133"
         id="path969" />
      <path
         style="fill:none;stroke:#000000"
         d="M 398.147,760.031 334.666,650.079"
         id="path971" />
      <path
         style="fill:none;stroke:#000000"
         d="M 334.666,650.079 402.297,532.936"
         id="path973" />
      <path
         style="fill:none;stroke:#000000"
         d="M 402.297,532.936 339.312,490.851"
         id="path975" />
      <path
         style="fill:none;stroke:#000000"
         d="m 339.312,490.851 -48.288,83.637"
         id="path977" />
      <path
         style="fill:none;stroke:#000000"
         d="M 291.024,574.488 229.267,467.524"
         id="path979" />
      <path
         style="fill:none;stroke:#000000"
         d="m 229.267,467.524 -65.463,37.795"
         id="path981" />
      <path
         style="fill:none;stroke:#000000"
         d="M 163.804,505.319 352.78,832.635"
         id="path983" />
      <path
         style="fill:none;stroke:#000000"
         d="m 352.78,832.635 51.044,-29.471"
         id="path985" />
      <path
         style="fill:none;stroke:#000000"
         d="m -132.816,685.659 -7.693,-58.439"
         id="path987" />
      <path
         style="fill:none;stroke:#000000"
         d="m -140.509,627.22 -42.023,-11.259"
         id="path989" />
      <path
         style="fill:none;stroke:#000000"
         d="m -182.532,615.961 -125.876,16.573"
         id="path991" />
      <path
         style="fill:none;stroke:#000000"
         d="M -308.408,632.534 -390.75,525.222"
         id="path993" />
      <path
         style="fill:none;stroke:#000000"
         d="m -390.75,525.222 -62.986,42.085"
         id="path995" />
      <path
         style="fill:none;stroke:#000000"
         d="m -453.736,567.307 58.79,76.619"
         id="path997" />
      <path
         style="fill:none;stroke:#000000"
         d="m -394.946,643.926 -122.456,16.123"
         id="path999" />
      <path
         style="fill:none;stroke:#000000"
         d="m -517.402,660.049 9.868,74.944"
         id="path1001" />
      <path
         style="fill:none;stroke:#000000"
         d="m -507.534,734.993 374.718,-49.334"
         id="path1003" />
      <path
         style="fill:none;stroke:#000000"
         d="m 495.3,982.01 11.259,-42.022"
         id="path1005" />
      <path
         style="fill:none;stroke:#000000"
         d="M 506.559,939.988 489.986,814.112"
         id="path1007" />
      <path
         style="fill:none;stroke:#000000"
         d="M 489.986,814.112 597.298,731.769"
         id="path1009" />
      <path
         style="fill:none;stroke:#000000"
         d="M 597.298,731.769 555.213,668.784"
         id="path1011" />
      <path
         style="fill:none;stroke:#000000"
         d="m 555.213,668.784 -76.619,58.79"
         id="path1013" />
      <path
         style="fill:none;stroke:#000000"
         d="M 478.594,727.574 462.471,605.117"
         id="path1015" />
      <path
         style="fill:none;stroke:#000000"
         d="m 462.471,605.117 -74.945,9.869"
         id="path1017" />
      <path
         style="fill:none;stroke:#000000"
         d="M 387.526,614.986 436.86,989.704"
         id="path1019" />
      <path
         style="fill:none;stroke:#000000"
         d="M 436.86,989.704 495.3,982.01"
         id="path1021" />
      <path
         style="fill:none;stroke:#000000"
         d="m -289.885,769.74 -29.471,-51.044"
         id="path1023" />
      <path
         style="fill:none;stroke:#000000"
         d="m -319.356,718.696 -43.133,5.677"
         id="path1025" />
      <path
         style="fill:none;stroke:#000000"
         d="m -362.489,724.373 -109.952,63.481"
         id="path1027" />
      <path
         style="fill:none;stroke:#000000"
         d="M -472.441,787.854 -589.584,720.223"
         id="path1029" />
      <path
         style="fill:none;stroke:#000000"
         d="m -589.584,720.223 -42.085,62.985"
         id="path1031" />
      <path
         style="fill:none;stroke:#000000"
         d="m -631.669,783.208 83.638,48.288"
         id="path1033" />
      <path
         style="fill:none;stroke:#000000"
         d="m -548.031,831.496 -106.965,61.757"
         id="path1035" />
      <path
         style="fill:none;stroke:#000000"
         d="m -654.996,893.253 37.795,65.463"
         id="path1037" />
      <path
         style="fill:none;stroke:#000000"
         d="M -617.201,958.716 -289.885,769.74"
         id="path1039" />
      <path
         style="fill:none;stroke:#000000"
         d="M 537.849,1147.73 570.712,1025.1"
         id="path1041" />
      <path
         style="fill:none;stroke:#000000"
         d="M 570.712,1025.1 701.367,990.089"
         id="path1043" />
      <path
         style="fill:none;stroke:#000000"
         d="M 701.367,990.089 686.589,915.792"
         id="path1045" />
      <path
         style="fill:none;stroke:#000000"
         d="m 686.589,915.792 -93.286,24.996"
         id="path1047" />
      <path
         style="fill:none;stroke:#000000"
         d="M 593.303,940.788 625.27,821.483"
         id="path1049" />
      <path
         style="fill:none;stroke:#000000"
         d="M 625.27,821.483 552.253,801.919"
         id="path1051" />
      <path
         style="fill:none;stroke:#000000"
         d="M 552.253,801.919 454.431,1166.99"
         id="path1053" />
      <path
         style="fill:none;stroke:#000000"
         d="m 454.431,1166.99 56.935,15.26"
         id="path1055" />
      <path
         style="fill:none;stroke:#000000"
         d="m 511.366,1182.25 26.483,-34.52"
         id="path1057" />
      <path
         style="fill:none;stroke:#000000"
         d="m -402.822,907.528 -46.76,-35.882"
         id="path1059" />
      <path
         style="fill:none;stroke:#000000"
         d="m -449.582,871.646 -37.678,21.753"
         id="path1061" />
      <path
         style="fill:none;stroke:#000000"
         d="m -487.26,893.399 -77.288,100.725"
         id="path1063" />
      <path
         style="fill:none;stroke:#000000"
         d="M -564.548,994.124 -698.657,976.469"
         id="path1065" />
      <path
         style="fill:none;stroke:#000000"
         d="m -698.657,976.469 -14.778,74.301"
         id="path1067" />
      <path
         style="fill:none;stroke:#000000"
         d="m -713.435,1050.77 95.751,12.6"
         id="path1069" />
      <path
         style="fill:none;stroke:#000000"
         d="m -617.684,1063.37 -75.19,97.99"
         id="path1071" />
      <path
         style="fill:none;stroke:#000000"
         d="m -692.874,1161.36 59.969,46.02"
         id="path1073" />
      <path
         style="fill:none;stroke:#000000"
         d="M -632.905,1207.38 -402.822,907.528"
         id="path1075" />
      <path
         style="fill:none;stroke:#000000"
         d="m 487.26,1351.64 77.288,-100.72"
         id="path1077" />
      <path
         style="fill:none;stroke:#000000"
         d="m 564.548,1250.92 134.109,17.65"
         id="path1079" />
      <path
         style="fill:none;stroke:#000000"
         d="m 698.657,1268.57 14.778,-74.3"
         id="path1081" />
      <path
         style="fill:none;stroke:#000000"
         d="m 713.435,1194.27 -95.751,-12.6"
         id="path1083" />
      <path
         style="fill:none;stroke:#000000"
         d="m 617.684,1181.67 75.19,-97.99"
         id="path1085" />
      <path
         style="fill:none;stroke:#000000"
         d="m 692.874,1083.68 -59.969,-46.02"
         id="path1087" />
      <path
         style="fill:none;stroke:#000000"
         d="M 632.905,1037.66 402.822,1337.51"
         id="path1089" />
      <path
         style="fill:none;stroke:#000000"
         d="m 402.822,1337.51 46.76,35.88"
         id="path1091" />
      <path
         style="fill:none;stroke:#000000"
         d="m 449.582,1373.39 37.678,-21.75"
         id="path1093" />
      <path
         style="fill:none;stroke:#000000"
         d="m -454.431,1078.05 -56.935,-15.26"
         id="path1095" />
      <path
         style="fill:none;stroke:#000000"
         d="m -511.366,1062.79 -26.483,34.52"
         id="path1097" />
      <path
         style="fill:none;stroke:#000000"
         d="m -537.849,1097.31 -32.863,122.63"
         id="path1099" />
      <path
         style="fill:none;stroke:#000000"
         d="m -570.712,1219.94 -130.655,35.01"
         id="path1101" />
      <path
         style="fill:none;stroke:#000000"
         d="m -701.367,1254.95 14.778,74.3"
         id="path1103" />
      <path
         style="fill:none;stroke:#000000"
         d="m -686.589,1329.25 93.286,-25"
         id="path1105" />
      <path
         style="fill:none;stroke:#000000"
         d="m -593.303,1304.25 -31.967,119.31"
         id="path1107" />
      <path
         style="fill:none;stroke:#000000"
         d="m -625.27,1423.56 73.017,19.56"
         id="path1109" />
      <path
         style="fill:none;stroke:#000000"
         d="m -552.253,1443.12 97.822,-365.07"
         id="path1111" />
      <path
         style="fill:none;stroke:#000000"
         d="M -387.526,1630.05 -436.86,1255.34"
         id="path1113" />
      <path
         style="fill:none;stroke:#000000"
         d="m -436.86,1255.34 -58.44,7.69"
         id="path1115" />
      <path
         style="fill:none;stroke:#000000"
         d="m -495.3,1263.03 -11.259,42.02"
         id="path1117" />
      <path
         style="fill:none;stroke:#000000"
         d="m -506.559,1305.05 16.573,125.88"
         id="path1119" />
      <path
         style="fill:none;stroke:#000000"
         d="m -489.986,1430.93 -107.312,82.34"
         id="path1121" />
      <path
         style="fill:none;stroke:#000000"
         d="m -597.298,1513.27 42.085,62.99"
         id="path1123" />
      <path
         style="fill:none;stroke:#000000"
         d="m -555.213,1576.26 76.619,-58.79"
         id="path1125" />
      <path
         style="fill:none;stroke:#000000"
         d="m -478.594,1517.47 16.123,122.45"
         id="path1127" />
      <path
         style="fill:none;stroke:#000000"
         d="m -462.471,1639.92 74.945,-9.87"
         id="path1129" />
      <path
         style="fill:none;stroke:#000000"
         d="m 362.489,1520.67 109.952,-63.48"
         id="path1131" />
      <path
         style="fill:none;stroke:#000000"
         d="m 472.441,1457.19 117.143,67.63"
         id="path1133" />
      <path
         style="fill:none;stroke:#000000"
         d="m 589.584,1524.82 42.085,-62.99"
         id="path1135" />
      <path
         style="fill:none;stroke:#000000"
         d="m 631.669,1461.83 -83.638,-48.29"
         id="path1137" />
      <path
         style="fill:none;stroke:#000000"
         d="m 548.031,1413.54 106.965,-61.75"
         id="path1139" />
      <path
         style="fill:none;stroke:#000000"
         d="m 654.996,1351.79 -37.795,-65.47"
         id="path1141" />
      <path
         style="fill:none;stroke:#000000"
         d="M 617.201,1286.32 289.885,1475.3"
         id="path1143" />
      <path
         style="fill:none;stroke:#000000"
         d="m 289.885,1475.3 29.471,51.04"
         id="path1145" />
      <path
         style="fill:none;stroke:#000000"
         d="m 319.356,1526.34 43.133,-5.67"
         id="path1147" />
      <path
         style="fill:none;stroke:#000000"
         d="M -163.804,1739.72 -352.78,1412.4"
         id="path1149" />
      <path
         style="fill:none;stroke:#000000"
         d="m -352.78,1412.4 -51.044,29.48"
         id="path1151" />
      <path
         style="fill:none;stroke:#000000"
         d="m -403.824,1441.88 5.677,43.13"
         id="path1153" />
      <path
         style="fill:none;stroke:#000000"
         d="m -398.147,1485.01 63.481,109.95"
         id="path1155" />
      <path
         style="fill:none;stroke:#000000"
         d="m -334.666,1594.96 -67.631,117.14"
         id="path1157" />
      <path
         style="fill:none;stroke:#000000"
         d="m -402.297,1712.1 62.985,42.09"
         id="path1159" />
      <path
         style="fill:none;stroke:#000000"
         d="m -339.312,1754.19 48.288,-83.64"
         id="path1161" />
      <path
         style="fill:none;stroke:#000000"
         d="m -291.024,1670.55 61.757,106.97"
         id="path1163" />
      <path
         style="fill:none;stroke:#000000"
         d="m -229.267,1777.52 65.463,-37.8"
         id="path1165" />
      <path
         style="fill:none;stroke:#000000"
         d="m 453.736,1677.73 -58.79,-76.62"
         id="path1167" />
      <path
         style="fill:none;stroke:#000000"
         d="m 394.946,1601.11 122.456,-16.12"
         id="path1169" />
      <path
         style="fill:none;stroke:#000000"
         d="m 517.402,1584.99 -9.868,-74.94"
         id="path1171" />
      <path
         style="fill:none;stroke:#000000"
         d="m 507.534,1510.05 -374.718,49.33"
         id="path1173" />
      <path
         style="fill:none;stroke:#000000"
         d="m 132.816,1559.38 7.693,58.44"
         id="path1175" />
      <path
         style="fill:none;stroke:#000000"
         d="m 140.509,1617.82 42.023,11.26"
         id="path1177" />
      <path
         style="fill:none;stroke:#000000"
         d="m 182.532,1629.08 125.876,-16.57"
         id="path1179" />
      <path
         style="fill:none;stroke:#000000"
         d="m 308.408,1612.51 82.342,107.31"
         id="path1181" />
      <path
         style="fill:none;stroke:#000000"
         d="m 390.75,1719.82 62.986,-42.09"
         id="path1183" />
      <path
         style="fill:none;stroke:#000000"
         d="m -59.1481,1740.2 97.9892,75.19"
         id="path1185" />
      <path
         style="fill:none;stroke:#000000"
         d="M 38.8411,1815.39 84.858,1755.42"
         id="path1187" />
      <path
         style="fill:none;stroke:#000000"
         d="m 84.858,1755.42 -299.85,-230.08"
         id="path1189" />
      <path
         style="fill:none;stroke:#000000"
         d="m -214.992,1525.34 -35.882,46.76"
         id="path1191" />
      <path
         style="fill:none;stroke:#000000"
         d="m -250.874,1572.1 21.753,37.68"
         id="path1193" />
      <path
         style="fill:none;stroke:#000000"
         d="m -229.121,1609.78 100.726,77.29"
         id="path1195" />
      <path
         style="fill:none;stroke:#000000"
         d="m -128.395,1687.07 -17.656,134.11"
         id="path1197" />
      <path
         style="fill:none;stroke:#000000"
         d="m -146.051,1821.18 74.297,14.77"
         id="path1199" />
      <path
         style="fill:none;stroke:#000000"
         d="m -71.754,1835.95 12.6059,-95.75"
         id="path1201" />
      <path
         style="fill:none;stroke:#000000"
         d="m 206.728,1809.11 -24.996,-93.29"
         id="path1203" />
      <path
         style="fill:none;stroke:#000000"
         d="m 181.732,1715.82 119.304,31.97"
         id="path1205" />
      <path
         style="fill:none;stroke:#000000"
         d="m 301.036,1747.79 19.565,-73.02"
         id="path1207" />
      <path
         style="fill:none;stroke:#000000"
         d="M 320.601,1674.77 -44.4737,1576.95"
         id="path1209" />
      <path
         style="fill:none;stroke:#000000"
         d="m -44.4737,1576.95 -15.2553,56.94"
         id="path1211" />
      <path
         style="fill:none;stroke:#000000"
         d="m -59.729,1633.89 34.5152,26.48"
         id="path1213" />
      <path
         style="fill:none;stroke:#000000"
         d="m -25.2138,1660.37 122.6357,32.86"
         id="path1215" />
      <path
         style="fill:none;stroke:#000000"
         d="M 97.4219,1693.23 132.43,1823.89"
         id="path1217" />
      <path
         style="fill:none;stroke:#000000"
         d="m 132.43,1823.89 74.298,-14.78"
         id="path1219" />
    </g>
    <path
       style="fill:#000000;fill-opacity:0;stroke-width:1.10456"
       d="m 593.12272,148.20394 c -53.47598,-41.11278 -97.37137,-75.146615 -97.54531,-75.630739 -0.17394,-0.484126 6.12964,-9.296136 14.00797,-19.582244 l 14.32422,-18.702018 32.36708,24.829285 c 21.50074,16.493545 32.60378,24.365629 33.07214,23.448214 0.38779,-0.759589 2.36342,-14.423707 4.3903,-30.364709 2.02688,-15.941001 4.03657,-29.552122 4.46599,-30.246935 0.5652,-0.914512 6.91046,-0.09852 22.98251,2.955516 12.21097,2.320347 22.65508,4.499242 23.20915,4.84199 0.57904,0.358191 -1.2558,17.766497 -4.31506,40.939721 -2.92734,22.174099 -5.489,42.044499 -5.69255,44.156459 -0.36969,3.83561 -0.33304,3.86839 32.76679,29.30575 l 33.13688,25.46585 6.89506,11.56306 c 3.79228,6.35969 6.89887,12.11397 6.90352,12.7873 0.0129,1.87162 -21.13167,29.16294 -22.52083,29.06764 -0.67035,-0.046 -44.97188,-33.72135 -98.44786,-74.83414 z"
       id="path88980"
       transform="matrix(0.9375,0,0,0.9375,132.5822,-958.04022)" />
    <path
       style="fill:#000000;fill-opacity:0;stroke-width:1.10456"
       d="m 593.12272,148.20394 c -53.47598,-41.11278 -97.37137,-75.146615 -97.54531,-75.630739 -0.17394,-0.484126 6.12964,-9.296136 14.00797,-19.582244 l 14.32422,-18.702018 32.36708,24.829285 c 21.50074,16.493545 32.60378,24.365629 33.07214,23.448214 0.38779,-0.759589 2.36342,-14.423707 4.3903,-30.364709 2.02688,-15.941001 4.03657,-29.552122 4.46599,-30.246935 0.5652,-0.914512 6.91046,-0.09852 22.98251,2.955516 12.21097,2.320347 22.65508,4.499242 23.20915,4.84199 0.57904,0.358191 -1.2558,17.766497 -4.31506,40.939721 -2.92734,22.174099 -5.489,42.044499 -5.69255,44.156459 -0.36969,3.83561 -0.33304,3.86839 32.76679,29.30575 l 33.13688,25.46585 6.89506,11.56306 c 3.79228,6.35969 6.89887,12.11397 6.90352,12.7873 0.0129,1.87162 -21.13167,29.16294 -22.52083,29.06764 -0.67035,-0.046 -44.97188,-33.72135 -98.44786,-74.83414 z"
       id="path89019"
       transform="matrix(0.9375,0,0,0.9375,132.5822,-958.04022)" />
    <path
       style="fill:#000000;fill-opacity:0;stroke-width:1.10456"
       d="m 593.12272,148.20394 c -53.47598,-41.11278 -97.37137,-75.146615 -97.54531,-75.630739 -0.17394,-0.484126 6.12964,-9.296136 14.00797,-19.582244 l 14.32422,-18.702018 32.36708,24.829285 c 21.50074,16.493545 32.60378,24.365629 33.07214,23.448214 0.38779,-0.759589 2.36342,-14.423707 4.3903,-30.364709 2.02688,-15.941001 4.03657,-29.552122 4.46599,-30.246935 0.5652,-0.914512 6.91046,-0.09852 22.98251,2.955516 12.21097,2.320347 22.65508,4.499242 23.20915,4.84199 0.57904,0.358191 -1.2558,17.766497 -4.31506,40.939721 -2.92734,22.174099 -5.489,42.044499 -5.69255,44.156459 -0.36969,3.83561 -0.33304,3.86839 32.76679,29.30575 l 33.13688,25.46585 6.89506,11.56306 c 3.79228,6.35969 6.89887,12.11397 6.90352,12.7873 0.0129,1.87162 -21.13167,29.16294 -22.52083,29.06764 -0.67035,-0.046 -44.97188,-33.72135 -98.44786,-74.83414 z"
       id="path89058"
       transform="matrix(0.9375,0,0,0.9375,132.5822,-958.04022)" />
    <path
       style="fill:#c06d54;fill-opacity:1;stroke-width:0.501189"
       d="m 593.27548,148.71147 c -54.34823,-41.68369 -98.8235,-75.969656 -98.83393,-76.191036 -0.0245,-0.519833 29.06612,-38.439608 29.48942,-38.439608 0.17593,0 14.73199,11.058013 32.34681,24.573362 17.61481,13.515349 32.26329,24.494577 32.55217,24.398284 0.29698,-0.09899 2.31087,-13.734214 4.63413,-31.375713 2.25989,-17.16035 4.22161,-31.313354 4.35938,-31.451121 0.26067,-0.260671 47.3141,9.034645 47.70311,9.423659 0.12167,0.121668 -2.36755,19.831547 -5.5316,43.799729 -3.16406,23.968183 -5.69373,43.953574 -5.6215,44.411984 0.0722,0.45841 15.12939,12.34146 33.46036,26.40678 l 33.32904,25.57331 7.05619,12.24207 7.05619,12.24208 -11.48803,14.97833 c -6.31841,8.23808 -11.53499,15.0274 -11.5924,15.08737 -0.0574,0.06 -44.57111,-33.99578 -98.91934,-75.67948 z"
       id="path89097"
       transform="matrix(0.9375,0,0,0.9375,132.5822,-958.04022)" />
    <path
       style="fill:#c69e53;fill-opacity:1;stroke-width:0.298098"
       d="M 457.72956,158.16318 C 367.99845,134.0916 337.45497,125.78863 337.47838,125.47395 c 0.0553,-0.74342 12.39281,-46.618721 12.59657,-46.838587 0.10784,-0.116362 17.83471,4.523939 39.39306,10.311781 28.66554,7.695938 39.2905,10.435898 39.54501,10.197857 0.26264,-0.24565 -1.65507,-7.784213 -7.81769,-30.731497 -4.49113,-16.723301 -8.16903,-30.545625 -8.17309,-30.716275 -0.005,-0.228233 47.88861,-10.021421 48.18256,-9.852182 0.0259,0.01492 5.23689,19.410947 11.57995,43.10229 6.34307,23.691343 11.62282,43.171323 11.73279,43.288853 0.10996,0.11753 18.48559,5.11434 40.83473,11.10402 l 40.63481,10.89034 11.3122,8.68168 c 8.3486,6.40723 11.27297,8.80873 11.16243,9.16664 -0.26458,0.85668 -9.70434,36.14578 -9.70434,36.27819 0,0.0702 -0.16768,0.11543 -0.37262,0.10057 -0.20494,-0.0149 -54.49978,-14.54737 -120.65519,-32.29445 z"
       id="path117200"
       transform="matrix(0.9375,0,0,0.9375,132.5822,-958.04022)" />
    <path
       style="fill:#262a3b;fill-opacity:1;stroke-width:0.463004"
       d="m 477.25002,960.98535 c -13.0464,-2.59075 -23.79391,-4.80099 -23.88337,-4.91164 -0.0895,-0.11065 2.40071,-19.57791 5.53371,-43.26058 3.13299,-23.68267 5.69356,-43.68446 5.69014,-44.44842 -0.006,-1.29201 -2.34095,-3.17812 -33.43798,-27.00784 l -33.43176,-25.61882 -2.14159,-3.78195 c -1.17787,-2.08008 -4.33054,-7.56444 -7.00592,-12.18748 l -4.86433,-8.40552 11.57972,-15.10152 11.57971,-15.10152 1.67677,1.26166 c 8.06229,6.06636 194.93589,149.51511 195.53061,150.09407 0.72929,0.70998 -0.19338,2.02918 -13.9304,19.91719 -8.09128,10.53627 -14.86782,19.15458 -15.05897,19.15181 -0.19116,-0.003 -14.42727,-10.81105 -31.6358,-24.01839 -36.3721,-27.91516 -32.96723,-25.3826 -33.44591,-24.8772 -0.20881,0.22046 -2.20452,14.36042 -4.43493,31.42213 -2.2304,17.06171 -4.17761,31.14801 -4.32713,31.30289 -0.14952,0.15488 -10.94618,-1.83812 -23.99257,-4.42887 z"
       id="path322092"
       transform="matrix(0.9375,0,0,0.9375,132.5822,-958.04022)" />
    <path
       style="fill:#262a3b;fill-opacity:1;stroke-width:0.463004"
       d="m 498.65571,964.79736 c -1.27326,-0.20697 -11.94873,-2.27906 -23.72327,-4.60465 l -21.40826,-4.22835 0.24321,-1.66643 c 1.3078,-8.96064 10.8575,-83.9485 10.8575,-85.25714 0,-2.47902 1.73777,-1.04424 -40.38517,-33.34392 l -26.3,-20.16672 -6.77854,-11.78058 c -3.7282,-6.47932 -6.7812,-12.00551 -6.78446,-12.28042 -0.0118,-0.99483 22.46677,-29.82333 23.00168,-29.4994 1.08068,0.65444 195.34074,149.70548 196.3497,150.65437 0.26306,0.24741 -0.41125,1.63837 -1.71582,3.53933 -2.31831,3.37813 -22.40758,29.57876 -25.28567,32.97781 l -1.74919,2.06582 -6.67655,-5.06643 c -3.67211,-2.78653 -13.448,-10.2527 -21.7242,-16.59148 -29.14077,-22.31904 -35.28072,-26.92345 -36.08529,-27.06074 -0.88787,-0.15149 -0.78846,-0.78877 -6.73814,43.19801 -1.41222,10.44075 -2.61601,19.09659 -2.67509,19.2352 -0.0591,0.13861 -1.14917,0.0827 -2.42244,-0.12428 z"
       id="path355899"
       transform="matrix(0.9375,0,0,0.9375,132.5822,-958.04022)" />
    <path
       style="fill:#353350;fill-opacity:1;stroke-width:0.463004"
       d="m 637.65996,957.07122 c -0.10866,-0.40462 -5.26574,-19.69571 -11.46018,-42.86908 -6.19444,-23.17336 -11.42544,-42.35274 -11.62446,-42.62084 -0.19901,-0.26809 -18.60388,-5.37203 -40.89972,-11.34208 l -40.53789,-10.85464 -11.29708,-8.6722 -11.29707,-8.6722 1.51836,-5.68246 c 6.99138,-26.16512 8.34073,-30.91506 8.77996,-30.90696 0.8072,0.0149 240.14103,64.22924 240.41667,64.50489 0.27994,0.27994 -11.85799,46.15563 -12.37138,46.75801 -0.17933,0.21043 -17.59296,-4.2487 -38.69694,-9.90918 -21.10398,-5.66047 -38.83967,-10.38858 -39.41264,-10.50691 -0.71148,-0.14694 -1.04176,0.004 -1.04176,0.47659 0,0.38045 3.64434,14.29669 8.09852,30.92499 4.45419,16.62829 8.02778,30.30401 7.9413,30.39048 -0.0865,0.0865 -10.90343,2.30823 -24.03768,4.93724 -20.64311,4.13202 -23.90723,4.68029 -24.07801,4.04435 z"
       id="path365062"
       transform="matrix(0.9375,0,0,0.9375,132.5822,-958.04022)" />
    <path
       style="display:inline;fill:#353350;fill-opacity:1;stroke-width:0.463004"
       d="m 377.21183,891.60613 c -11.18815,-19.38085 -20.55085,-35.3075 -20.80601,-35.39255 -0.25517,-0.0851 -7.4756,11.98999 -16.04542,26.83344 -8.56982,14.84345 -15.76249,27.27545 -15.98372,27.62668 -0.30951,0.49138 -5.05705,-2.48977 -20.59437,-12.93197 -11.10567,-7.4638 -20.19213,-13.72277 -20.19213,-13.90881 0,-0.18604 10.0058,-17.67052 22.23512,-38.85439 l 22.23511,-38.51614 -21.15283,-36.63801 -21.15284,-36.63801 -1.81187,-13.6681 c -1.01934,-7.68953 -1.64463,-13.9224 -1.42953,-14.24948 0.21028,-0.31976 7.57048,-4.73066 16.35599,-9.80201 12.02011,-6.9385 16.10024,-9.08651 16.48511,-8.67871 0.75357,0.79845 124.27037,214.94495 124.25594,215.42797 -0.007,0.22605 -6.10105,3.90496 -13.54288,8.17537 -7.44183,4.2704 -16.90177,9.71923 -21.02209,12.1085 l -7.49149,4.34414 z"
       id="path311993"
       transform="matrix(0.9375,0,0,0.9375,132.5822,-958.04022)" />
    <path
       style="display:inline;fill:#97b36d;fill-opacity:1;stroke-width:0.550563"
       d="m 213.0921,234.39308 c -0.29464,-0.95473 -6.36821,-47.93349 -6.20993,-48.03349 0.0713,-0.0451 17.72016,-2.3746 39.21966,-5.17676 21.4995,-2.80217 39.64745,-5.22481 40.32877,-5.38366 0.68132,-0.15885 1.23877,-0.52987 1.23877,-0.82448 0,-0.29461 -8.5475,-11.67279 -18.99444,-25.28485 -10.44694,-13.61205 -18.99417,-24.92663 -18.99383,-25.14349 3.3e-4,-0.21687 9.05915,-6.46207 20.1307,-13.87822 l 20.13011,-13.483906 0.92834,1.21983 c 0.51059,0.670907 12.69663,16.579306 27.0801,35.352006 22.15254,28.91255 26.36225,34.13465 27.52817,34.1484 0.75703,0.009 19.21466,-2.33564 41.01697,-5.21014 21.80231,-2.8745 40.38383,-5.22508 41.29226,-5.22351 0.90843,0.002 7.4739,1.57233 14.58993,3.49057 11.76352,3.17106 12.975,3.60788 13.34314,4.81116 0.49285,1.61092 4.9944,36.32022 4.73459,36.50618 -0.10143,0.0726 -55.43346,7.37752 -122.96006,16.23315 -67.5266,8.85563 -123.0947,16.20442 -123.48468,16.33064 -0.38997,0.12622 -0.80333,-0.076 -0.91857,-0.44943 z"
       id="path146680"
       transform="matrix(0.9375,0,0,0.9375,132.5822,-958.04022)" />
    <path
       style="display:inline;fill:#6aacc6;fill-opacity:1;stroke-width:0.550563"
       d="m 139.35018,381.93222 c -0.42124,-0.6697 -5.89312,-10.10256 -12.15972,-20.96191 -6.96176,-12.06396 -11.19617,-19.94194 -10.88569,-20.25242 0.27948,-0.27947 16.08203,-9.50184 35.11678,-20.49414 19.03475,-10.9923 34.6846,-20.21389 34.77744,-20.49242 0.0928,-0.27853 -12.21934,-7.65355 -27.36041,-16.38893 -15.14107,-8.73539 -27.52921,-15.99387 -27.52921,-16.12996 0,-0.65453 27.13082,-40.41665 27.47855,-40.27175 0.22004,0.0917 17.66326,10.14261 38.76272,22.33539 l 38.36265,22.16868 35.65054,-20.57612 c 19.6078,-11.31687 36.18408,-20.85513 36.8362,-21.19615 1.43963,-0.75283 27.3172,-4.21346 28.39999,-3.79796 0.80869,0.31033 19.43624,32.22618 19.03996,32.62247 -0.18411,0.1841 -75.99026,43.99019 -203.47271,117.58074 -12.16164,7.02043 -12.25679,7.06323 -13.01709,5.85448 z"
       id="path177761"
       transform="matrix(0.9375,0,0,0.9375,132.5822,-958.04022)" />
    <path
       style="display:inline;fill:#6584c6;fill-opacity:1;stroke-width:0.550563"
       d="m 109.64931,533.16493 -19.077286,-14.64563 1.057999,-1.45834 c 0.581899,-0.8021 11.723097,-15.33255 24.758227,-32.2899 18.66553,-24.28193 23.54092,-30.95193 22.95032,-31.39822 -0.41245,-0.31166 -14.58961,-2.37825 -31.5048,-4.59242 -16.915194,-2.21417 -30.829593,-4.09848 -30.920888,-4.18735 -0.164273,-0.15993 9.177225,-47.77505 9.406561,-47.94677 0.06546,-0.049 19.443787,2.47484 43.062947,5.60855 23.61917,3.13371 43.66797,5.63908 44.55288,5.56749 1.43322,-0.11594 4.3933,-3.75971 27.10615,-33.36678 l 25.49723,-33.23663 9.23103,-5.32176 c 5.07706,-2.92697 10.59367,-6.10062 12.25912,-7.05256 l 3.0281,-1.73079 14.8187,11.3846 c 8.15028,6.26154 14.81817,11.60148 14.81753,11.86656 -0.002,0.67746 -151.02414,197.44558 -151.54247,197.44558 -0.23324,0 -9.00885,-6.59053 -19.50135,-14.64563 z"
       id="path200028"
       transform="matrix(0.9375,0,0,0.9375,132.5822,-958.04022)" />
    <path
       style="display:inline;fill:#c64157;fill-opacity:1;stroke-width:0.550563"
       d="m 242.86901,833.92264 c -0.17108,-0.96035 -2.57816,-19.08884 -5.34907,-40.28553 -2.77091,-21.19669 -5.21094,-38.72946 -5.42229,-38.96173 -0.21135,-0.23226 -11.68237,8.2533 -25.49116,18.8568 -13.80879,10.6035 -25.24908,19.27909 -25.42287,19.27909 -0.32548,0 -26.63138,-39.23716 -26.88445,-40.1001 -0.0778,-0.26524 15.46705,-12.44176 34.54407,-27.05892 19.07702,-14.61717 34.99307,-26.86161 35.369,-27.20988 0.54152,-0.50168 -0.46132,-9.3221 -4.8276,-42.46107 l -5.51112,-41.82785 3.6174,-13.4888 c 1.98957,-7.41884 3.79036,-13.63484 4.00176,-13.81332 0.53119,-0.44848 36.95882,-5.12736 37.29579,-4.79039 0.38829,0.38828 32.77341,246.6819 32.47537,246.97994 -0.13594,0.13595 -10.22914,1.56416 -22.42931,3.17381 -12.20017,1.60965 -22.96341,3.0453 -23.9183,3.19034 -1.59249,0.24188 -1.76192,0.1192 -2.04722,-1.48239 z"
       id="path285122"
       transform="matrix(0.9375,0,0,0.9375,132.5822,-958.04022)" />
    <path
       style="display:inline;fill:#202330;fill-opacity:1;stroke-width:0.463004"
       d="m 389.82919,912.91612 c -23.24136,-40.36802 -32.94343,-56.82103 -33.50644,-56.82103 -0.44625,0 -8.22994,13.03335 -21.56797,36.11435 -5.51844,9.54946 -10.21092,17.5468 -10.42773,17.77187 -0.22548,0.23407 -1.3486,-0.14341 -2.62411,-0.88196 -3.32809,-1.92702 -36.58937,-24.27269 -37.16872,-24.97077 -0.54205,-0.65313 1.17179,-3.7233 28.81823,-51.62484 13.29666,-23.03843 14.77149,-25.79598 14.36251,-26.85425 -0.25068,-0.64866 -9.74321,-17.25173 -21.09452,-36.89571 l -20.63873,-35.71633 -1.40579,-10.81561 c -0.77319,-5.94859 -1.53807,-12.1699 -1.69973,-13.82514 l -0.29394,-3.00953 10.34281,-6.09296 c 11.73302,-6.91193 21.23331,-12.19598 21.91792,-12.19071 0.25465,0.002 1.20737,1.30384 2.11715,2.89306 0.90979,1.58922 4.68225,8.09829 8.38326,14.4646 28.90938,49.72861 113.81626,197.19391 113.81626,197.67478 0,0.30117 -31.03382,18.46888 -41.25828,24.1533 -0.15532,0.0864 -3.7878,-5.93155 -8.07218,-13.37312 z"
       id="path343111"
       transform="matrix(0.9375,0,0,0.9375,132.5822,-958.04022)" />
    <path
       style="display:inline;fill:#9b71b6;fill-opacity:1;stroke-width:0.550563"
       d="m 158.28697,698.44556 c -20.60443,-5.57833 -22.83047,-6.29036 -22.66602,-7.2501 0.1003,-0.58534 4.74568,-18.11161 10.32307,-38.94726 5.57738,-20.83565 10.1407,-38.25704 10.1407,-38.71418 0,-0.53172 -0.34713,-0.72983 -0.96349,-0.54987 -3.37664,0.98587 -58.975,15.72691 -59.835806,15.86454 -0.977305,0.15625 -1.449392,-1.75674 -5.845522,-23.6872 -3.22359,-16.08115 -4.581845,-23.9286 -4.167184,-24.07631 0.338343,-0.12052 19.692192,-5.32295 43.008552,-11.56096 23.31636,-6.23801 42.55223,-11.50765 42.74638,-11.71032 0.19415,-0.20266 5.11188,-18.20673 10.92831,-40.00904 5.81641,-21.80231 10.87299,-40.26106 11.23684,-41.01944 1.13575,-2.36732 16.88001,-22.57063 17.58909,-22.57063 0.75765,0 35.76649,9.34732 36.04247,9.6233 0.14332,0.14333 -60.69823,227.93362 -63.56653,237.99258 -0.45331,1.58975 -1.11632,2.87027 -1.47334,2.8456 -0.35703,-0.0247 -10.93091,-2.82849 -23.49752,-6.23071 z"
       id="path247801"
       transform="matrix(0.9375,0,0,0.9375,132.5822,-958.04022)" />
    <path
       style="display:inline;fill:#697589;fill-opacity:1;stroke-width:0.463004"
       d="m 761.23762,759.21143 c -2.0215,-3.20326 -18.40154,-31.92811 -18.27119,-32.04128 0.0856,-0.0743 48.07655,-27.79095 106.6466,-61.59255 58.57006,-33.80161 107.13615,-61.84875 107.92465,-62.32699 l 1.43364,-0.86952 12.14533,21.04632 c 6.67993,11.57547 12.04398,21.21031 11.9201,21.41074 -0.12388,0.20044 -15.96527,9.4264 -35.20311,20.50213 -19.23783,11.07574 -34.98747,20.35893 -34.99919,20.62932 -0.0117,0.2704 12.37769,7.64822 27.53204,16.39516 l 27.55336,15.90353 -0.78067,1.19901 c -0.42937,0.65946 -6.51255,9.80089 -13.51818,20.3143 -9.6568,14.49204 -12.91257,19.04886 -13.46132,18.84062 -0.39809,-0.15107 -17.84749,-10.15933 -38.77645,-22.24057 -20.92896,-12.08124 -38.14459,-21.96589 -38.25696,-21.96589 -0.11237,0 -16.63752,9.49132 -36.72256,21.09182 l -36.51824,21.09181 -13.75761,1.8269 c -7.56668,1.0048 -13.86453,1.8269 -13.99521,1.8269 -0.13068,0 -0.53344,-0.46879 -0.89503,-1.04176 z"
       id="path406398"
       transform="matrix(0.9375,0,0,0.9375,132.5822,-958.04022)" />
    <path
       style="display:inline;fill:#747a9e;fill-opacity:1;stroke-width:0.463004"
       d="m 832.90721,647.0523 c -8.12816,-6.23695 -14.77847,-11.50286 -14.77847,-11.70201 0,-0.42543 151.29266,-197.77253 151.63393,-197.79225 0.37647,-0.0217 37.69623,28.67002 38.15113,29.33097 0.2962,0.43037 -6.631,9.78648 -24.0206,32.44304 -13.44029,17.51104 -24.46192,32.16565 -24.49251,32.56581 -0.0472,0.61751 4.60217,1.34228 30.73417,4.79105 16.93434,2.23491 31.11314,4.12383 31.50834,4.19759 0.609,0.11366 0,3.75267 -3.9657,23.8547 -2.5764,13.04632 -4.8241,23.86036 -4.9949,24.03121 -0.2547,0.25471 -84.40706,-10.48245 -87.67041,-11.18604 -0.85453,-0.18425 -4.57393,4.45343 -26.09706,32.54017 -13.80526,18.01527 -25.5454,33.20929 -26.08919,33.76448 -0.98242,1.00303 -24.02834,14.50121 -24.75843,14.50121 -0.21,0 -7.03213,-5.10297 -15.1603,-11.33993 z"
       id="path414703"
       transform="matrix(0.9375,0,0,0.9375,132.5822,-958.04022)" />
    <path
       style="display:inline;fill:#747a9e;fill-opacity:1;stroke-width:0.463004"
       d="m 869.64002,526.75603 c -10.87438,-2.93606 -17.47715,-4.93239 -17.47842,-5.28452 -0.002,-0.42515 63.02841,-236.23545 64.15108,-240.00476 0.18563,-0.62323 3.74008,0.2069 23.47759,5.48313 12.79236,3.41965 23.41339,6.36324 23.60229,6.54132 0.1889,0.17808 -4.36344,17.88971 -10.11631,39.35918 -6.31179,23.55535 -10.29205,39.20312 -10.03687,39.45831 0.25519,0.25519 12.41101,-2.7929 30.65281,-7.68621 16.62645,-4.46001 30.38601,-8.10911 30.57691,-8.10911 0.3847,0 9.9993,47.58645 9.6793,47.9065 -0.1105,0.1105 -19.56827,5.39103 -43.23946,11.73452 l -43.03853,11.53362 -10.93537,40.79743 c -6.01446,22.43859 -11.14838,41.06281 -11.40871,41.38716 -0.26033,0.32435 -4.06465,5.27765 -8.45406,11.00733 -5.63403,7.35434 -8.27113,10.44363 -8.96831,10.50615 -0.54316,0.0487 -8.85194,-2.03481 -18.46394,-4.63005 z"
       id="path426050"
       transform="matrix(0.9375,0,0,0.9375,132.5822,-958.04022)" />
    <path
       style="display:inline;fill:#c6c6c6;fill-opacity:1;stroke-width:0.510482"
       d="m 839.77443,401.8768 c -0.17221,-1.05287 -7.42248,-56.01262 -16.11171,-122.13277 -8.68923,-66.12016 -15.92025,-120.91378 -16.06894,-121.7636 l -0.27033,-1.54513 24.10819,-3.16514 c 13.2595,-1.74083 24.24835,-2.99811 24.41966,-2.79396 0.17132,0.20414 2.65413,18.28473 5.51737,40.17908 2.86324,21.89434 5.398,40.00002 5.63282,40.23484 0.35431,0.35431 16.14299,-11.50824 45.76208,-34.38256 l 5.12694,-3.95944 13.63637,20.3409 13.63638,20.3409 -4.21458,3.27345 c -2.31802,1.80039 -18.2273,14.01412 -35.35397,27.14162 -17.12666,13.1275 -31.20354,24.03547 -31.28196,24.23994 -0.0784,0.20447 2.27618,18.71762 5.23244,41.14034 2.95626,22.42272 5.37501,41.36119 5.37501,42.0855 0,1.17862 -6.83615,27.45676 -7.23767,27.82158 -0.19775,0.17968 -35.61892,4.85875 -36.78136,4.85875 -0.54421,0 -0.91731,-0.63389 -1.12674,-1.9143 z"
       id="path568842"
       transform="matrix(0.9375,0,0,0.9375,132.5822,-958.04022)" />
  </g>
  <g
     inkscape:groupmode="layer"
     id="layer1"
     inkscape:label="ss">
    <g
       aria-label="base16.nix"
       id="text9915"
       style="font-size:537.5px;line-height:1.25;font-family:Unifont;-inkscape-font-specification:'Unifont, Normal';font-variant-ligatures:none;display:inline;opacity:1;fill:url(#linearGradient30138);stroke:url(#linearGradient9120);stroke-width:0.9375">
      <path
         d="m 80.02147,576.07629 h 33.59375 v 33.59375 H 214.39647 V 576.07629 H 113.61522 V 542.48254 H 80.02147 q 0,0 0,-134.375 h 33.59375 V 374.51379 H 80.02147 q 0,0 0,-134.375 H 46.42772 v 369.53125 h 33.59375 z m 134.375,0 h 33.59375 q 0,0 0,-201.5625 h -33.59375 q 0,0 0,201.5625 z M 113.61522,374.51379 H 214.39647 V 340.92004 H 113.61522 Z"
         id="path1924" />
      <path
         d="m 348.77147,576.07629 v 33.59375 h 100.78125 v -33.59375 z m 0,0 V 475.29504 h -33.59375 v 100.78125 z m 134.375,0 v 33.59375 h 33.59375 V 374.51379 h -33.59375 q 0,0 0,67.1875 h -134.375 v 33.59375 h 134.375 q 0,0 0,67.1875 h -33.59375 v 33.59375 z m -134.375,-201.5625 h -33.59375 v 33.59375 h 33.59375 z m 0,0 h 134.375 v -33.59375 h -134.375 z"
         id="path1926" />
      <path
         d="m 785.49022,408.10754 v -33.59375 h -33.59375 v 33.59375 z M 617.52147,576.07629 v 33.59375 h 134.375 v -33.59375 z m 0,0 v -33.59375 h -33.59375 v 33.59375 z m 134.375,0 h 33.59375 q 0,0 0,-67.1875 h -33.59375 q 0,0 0,67.1875 z m 0,-67.1875 v -33.59375 h -67.1875 v 33.59375 z m -67.1875,-33.59375 v -33.59375 h -67.1875 v 33.59375 z m -67.1875,-33.59375 q 0,0 0,-67.1875 h -33.59375 q 0,0 0,67.1875 z m 0,-67.1875 h 134.375 v -33.59375 h -134.375 z"
         id="path1928" />
      <path
         d="m 1054.2402,576.07629 v -33.59375 h -33.5937 v 33.59375 H 886.27147 v 33.59375 h 134.37503 v -33.59375 z m -167.96873,0 V 475.29504 H 1054.2402 V 374.51379 h -33.5937 q 0,0 0,67.1875 H 886.27147 q 0,0 0,-67.1875 h -33.59375 q 0,0 0,201.5625 z m 0,-201.5625 H 1020.6465 V 340.92004 H 886.27147 Z"
         id="path1930" />
      <path
         d="m 1322.9902,609.67004 v -33.59375 h -67.1875 V 273.73254 h -33.5937 v 33.59375 h -33.5938 v 33.59375 h -33.5937 v 33.59375 h 33.5937 v -33.59375 h 33.5938 v 235.15625 h -67.1875 v 33.59375 z"
         id="path1932" />
      <path
         d="m 1558.1465,307.32629 v -33.59375 h -100.7813 v 33.59375 h -33.5937 v 33.59375 h -33.5938 v 235.15625 h 33.5938 v 33.59375 h 134.375 v -33.59375 h -134.375 q 0,0 0,-134.375 h 134.375 q 0,0 0,134.375 h 33.5937 q 0,0 0,-134.375 h -33.5937 v -33.59375 h -134.375 q 0,0 0,-67.1875 h 33.5937 v -33.59375 z"
         id="path1934" />
      <path
         d="m 1726.1152,542.48254 q 0,0 0,67.1875 h 67.1875 q 0,0 0,-67.1875 z"
         id="path1936" />
      <path
         d="m 1927.6777,340.92004 q 0,0 0,268.75 h 33.5938 q 0,0 0,-201.5625 h 33.5937 v -33.59375 h -33.5937 v -33.59375 z m 167.9688,33.59375 v 235.15625 h 33.5937 V 374.51379 Z m -100.7813,0 h 100.7813 v -33.59375 h -100.7813 z"
         id="path1938" />
      <path
         d="m 2397.9902,609.67004 v -33.59375 h -67.1875 V 340.92004 h -67.1875 v 33.59375 h 33.5938 q 0,0 0,201.5625 h -67.1875 v 33.59375 z M 2297.209,240.13879 q 0,0 0,67.1875 h 33.5937 q 0,0 0,-67.1875 z"
         id="path1940" />
      <path
         d="m 2465.1777,542.48254 q 0,0 0,67.1875 h 33.5938 q 0,0 0,-67.1875 z m 167.9688,0 q 0,0 0,67.1875 h 33.5937 q 0,0 0,-67.1875 z m -134.375,0 h 33.5937 v -33.59375 h -33.5937 z m 134.375,0 v -33.59375 h -33.5938 v 33.59375 z m -100.7813,-33.59375 h 67.1875 q 0,0 0,-67.1875 h -67.1875 q 0,0 0,67.1875 z m 0,-67.1875 v -33.59375 h -33.5937 v 33.59375 z m 67.1875,0 h 33.5938 v -33.59375 h -33.5938 z m -100.7812,-33.59375 q 0,0 0,-67.1875 h -33.5938 q 0,0 0,67.1875 z m 134.375,0 h 33.5937 q 0,0 0,-67.1875 h -33.5937 q 0,0 0,67.1875 z"
         id="path1942" />
    </g>
    <path
       style="display:inline;fill:#000000;fill-opacity:0;stroke-width:1.88946"
       d="M 728.38725,201.71879 C 697.73074,148.62458 669.88591,100.31249 666.50986,94.3586 l -6.13829,-10.825257 19.36451,-11.062929 c 10.65049,-6.084611 20.01601,-11.062929 20.81228,-11.062929 0.79627,0 10.26558,15.304635 21.04291,34.010299 10.77733,18.705666 20.30195,34.010296 21.16584,34.010296 0.86388,0 6.69921,-8.9622 12.96739,-19.91601 6.26818,-10.953807 13.30442,-23.109498 15.63608,-27.012646 l 4.23939,-7.096634 18.90651,12.82212 c 10.39858,7.052166 18.90651,13.49161 18.90651,14.30987 0,0.81826 -9.77784,18.41043 -21.72853,39.09372 l -21.72853,37.60597 21.5868,37.44902 c 20.43323,35.44778 21.65267,38.15582 22.81928,50.67525 1.21976,13.08979 1.17737,13.25639 -4.10956,16.14881 -2.93812,1.60742 -10.01845,5.5829 -15.73407,8.83438 l -10.39203,5.91181 z"
       id="path7300"
       transform="scale(0.9375)" />
    <path
       style="display:inline;fill:#bb585d;fill-opacity:1;stroke-width:0.278459"
       d="M 721.54888,191.76508 C 687.30197,132.44403 659.2435,83.752513 659.19673,83.561704 c -0.0908,-0.370248 42.09275,-24.906012 42.36381,-24.640636 0.0854,0.08364 9.24799,15.900368 20.36124,35.148295 14.92064,25.842237 20.34698,35.015067 20.74518,35.068247 0.44429,0.0593 3.28505,-4.69168 16.13293,-26.98148 8.57653,-14.879421 15.72896,-27.239117 15.8943,-27.465992 0.24957,-0.342443 3.76097,1.896198 20.67556,13.181381 11.20621,7.476635 20.37494,13.677941 20.37494,13.780681 0,0.10274 -9.97639,17.46505 -22.16975,38.58292 -12.19336,21.11786 -22.22997,38.54933 -22.30357,38.73659 -0.0736,0.18726 9.36307,16.78914 20.97037,36.89307 l 21.10419,36.5526 1.85681,14.06486 c 1.02125,7.73568 1.84291,14.07928 1.82591,14.0969 -0.10533,0.10916 -33.02385,19.04239 -33.10832,19.04239 -0.0574,0 -28.12454,-48.5354 -62.37145,-107.85645 z"
       id="path51923"
       transform="scale(0.9375)" />
    <path
       style="display:inline;fill:#505674;fill-opacity:1;stroke-width:0.463004"
       d="m 781.78289,853.06421 c -14.89716,-19.46414 -27.39828,-35.39136 -27.78026,-35.39383 -0.38198,-0.002 -18.86263,2.39152 -41.0681,5.31998 -22.20549,2.92846 -40.95473,5.32447 -41.66499,5.32447 -1.10121,0 -27.41656,-6.78994 -27.84396,-7.18435 -0.23434,-0.21626 -5.10499,-37.47437 -4.92354,-37.66275 0.31611,-0.32819 246.97306,-32.64973 247.22661,-32.39619 0.40873,0.40873 6.61246,47.80967 6.299,48.12888 -0.15467,0.15751 -18.35575,2.65287 -40.44685,5.54526 -30.40944,3.98151 -40.16563,5.40803 -40.16563,5.87288 0,0.3377 8.54243,11.74641 18.98318,25.35268 10.44075,13.60628 18.98318,24.93265 18.98318,25.1697 0,0.36243 -39.9473,27.41496 -40.36963,27.33854 -0.0788,-0.0143 -12.33184,-15.95113 -27.22901,-35.41527 z"
       id="path391541"
       transform="scale(0.9375)" />
    <g
       aria-label="1 configuration option
"
       id="text5153"
       style="font-size:112.5px;line-height:1.25;font-family:Unifont;-inkscape-font-specification:'Unifont, Normal';font-variant-ligatures:none;stroke-width:0.9375">
      <path
         d="m 1160.5408,760.47296 v -7.03125 h -14.0625 v -63.28125 h -7.0313 v 7.03125 h -7.0312 v 7.03125 h -7.0313 v 7.03125 h 7.0313 v -7.03125 h 7.0312 v 49.21875 h -14.0625 v 7.03125 z"
         id="path15991" />
      <path
         d="m 1273.0408,753.44171 v -7.03125 h -7.0313 v 7.03125 h -28.125 v 7.03125 h 28.125 v -7.03125 z m 0,-35.15625 v -7.03125 h -7.0313 v 7.03125 z m -35.1563,35.15625 q 0,0 0,-42.1875 h -7.0312 q 0,0 0,42.1875 z m 0,-42.1875 h 28.125 v -7.03125 h -28.125 z"
         id="path15993" />
      <path
         d="m 1294.1345,753.44171 v 7.03125 h 28.125 v -7.03125 z m 0,0 q 0,0 0,-42.1875 h -7.0312 q 0,0 0,42.1875 z m 28.125,0 h 7.0313 q 0,0 0,-42.1875 h -7.0313 q 0,0 0,42.1875 z m -28.125,-42.1875 h 28.125 v -7.03125 h -28.125 z"
         id="path15995" />
      <path
         d="m 1343.3533,704.22296 q 0,0 0,56.25 h 7.0312 q 0,0 0,-42.1875 h 7.0313 v -7.03125 h -7.0313 v -7.03125 z m 35.1562,7.03125 v 49.21875 h 7.0313 v -49.21875 z m -21.0937,0 h 21.0937 v -7.03125 h -21.0937 z"
         id="path15997" />
      <path
         d="m 1434.7595,718.28546 v -7.03125 h -14.0625 v -21.09375 h -7.0312 v 21.09375 h -14.0625 v 7.03125 h 14.0625 q 0,0 0,42.1875 h 7.0312 q 0,0 0,-42.1875 z m 0,-28.125 v -7.03125 h -14.0625 v 7.03125 z"
         id="path15999" />
      <path
         d="m 1498.0408,760.47296 v -7.03125 h -14.0625 v -49.21875 h -14.0625 v 7.03125 h 7.0312 q 0,0 0,42.1875 h -14.0625 v 7.03125 z m -21.0938,-77.34375 q 0,0 0,14.0625 h 7.0313 q 0,0 0,-14.0625 z"
         id="path16001" />
      <path
         d="m 1519.1345,767.50421 v 7.03125 h 28.125 v -7.03125 z m 0,0 q 0,0 0,-14.0625 h -7.0312 q 0,0 0,14.0625 z m 28.125,0 h 7.0313 q 0,0 0,-14.0625 h -7.0313 q 0,0 0,14.0625 z m -28.125,-14.0625 h 28.125 v -7.03125 h -21.0937 v -7.03125 h 14.0625 v -7.03125 h -21.0938 z m 0,-21.09375 v -21.09375 h -7.0312 v 21.09375 z m 21.0938,0 h 7.0312 v -21.09375 h -7.0312 z m -21.0938,-21.09375 h 21.0938 v -7.03125 h -21.0938 z m 28.125,0 h 7.0313 q 0,0 0,-14.0625 h -7.0313 q 0,0 0,14.0625 z"
         id="path16003" />
      <path
         d="m 1575.3845,753.44171 v 7.03125 h 21.0938 v -7.03125 z m 0,0 v -49.21875 h -7.0312 v 49.21875 z m 28.125,0 v 7.03125 h 7.0313 q 0,0 0,-56.25 h -7.0313 q 0,0 0,42.1875 h -7.0312 v 7.03125 z"
         id="path16005" />
      <path
         d="m 1624.6033,704.22296 q 0,0 0,56.25 h 7.0312 q 0,0 0,-42.1875 h 7.0313 v -7.03125 h -7.0313 v -7.03125 z m 35.1562,7.03125 q 0,0 0,14.0625 h 7.0313 q 0,0 0,-14.0625 z m -21.0937,0 h 21.0937 v -7.03125 h -21.0937 z"
         id="path16007" />
      <path
         d="m 1687.8845,753.44171 v 7.03125 h 21.0938 v -7.03125 z m 0,0 v -21.09375 h -7.0312 v 21.09375 z m 28.125,0 v 7.03125 h 7.0313 v -49.21875 h -7.0313 q 0,0 0,14.0625 h -28.125 v 7.03125 h 28.125 q 0,0 0,14.0625 h -7.0312 v 7.03125 z m -28.125,-42.1875 h -7.0312 v 7.03125 h 7.0312 z m 0,0 h 28.125 v -7.03125 h -28.125 z"
         id="path16009" />
      <path
         d="m 1772.2595,760.47296 v -7.03125 h -14.0625 v 7.03125 z m 0,-42.1875 v -7.03125 h -14.0625 v -21.09375 h -7.0312 v 21.09375 h -14.0625 v 7.03125 h 14.0625 v 35.15625 h 7.0312 v -35.15625 z"
         id="path16011" />
      <path
         d="m 1835.5408,760.47296 v -7.03125 h -14.0625 v -49.21875 h -14.0625 v 7.03125 h 7.0312 q 0,0 0,42.1875 h -14.0625 v 7.03125 z m -21.0938,-77.34375 q 0,0 0,14.0625 h 7.0313 q 0,0 0,-14.0625 z"
         id="path16013" />
      <path
         d="m 1856.6345,753.44171 v 7.03125 h 28.125 v -7.03125 z m 0,0 q 0,0 0,-42.1875 h -7.0312 q 0,0 0,42.1875 z m 28.125,0 h 7.0313 q 0,0 0,-42.1875 h -7.0313 q 0,0 0,42.1875 z m -28.125,-42.1875 h 28.125 v -7.03125 h -28.125 z"
         id="path16015" />
      <path
         d="m 1905.8533,704.22296 q 0,0 0,56.25 h 7.0312 q 0,0 0,-42.1875 h 7.0313 v -7.03125 h -7.0313 v -7.03125 z m 35.1562,7.03125 v 49.21875 h 7.0313 v -49.21875 z m -21.0937,0 h 21.0937 v -7.03125 h -21.0937 z"
         id="path16017" />
      <path
         d="m 2025.3845,753.44171 v 7.03125 h 28.125 v -7.03125 z m 0,0 q 0,0 0,-42.1875 h -7.0312 q 0,0 0,42.1875 z m 28.125,0 h 7.0313 q 0,0 0,-42.1875 h -7.0313 q 0,0 0,42.1875 z m -28.125,-42.1875 h 28.125 v -7.03125 h -28.125 z"
         id="path16019" />
      <path
         d="m 2074.6033,704.22296 q 0,0 0,70.3125 h 7.0312 v -21.09375 h 7.0313 v 7.03125 h 21.0937 v -7.03125 h -21.0937 v -7.03125 h -7.0313 q 0,0 0,-28.125 h 7.0313 v -7.03125 h -7.0313 v -7.03125 z m 35.1562,49.21875 h 7.0313 q 0,0 0,-42.1875 h -7.0313 q 0,0 0,42.1875 z m -21.0937,-42.1875 h 21.0937 v -7.03125 h -21.0937 z"
         id="path16021" />
      <path
         d="m 2166.0095,760.47296 v -7.03125 h -14.0625 v 7.03125 z m 0,-42.1875 v -7.03125 h -14.0625 v -21.09375 h -7.0312 v 21.09375 h -14.0625 v 7.03125 h 14.0625 v 35.15625 h 7.0312 v -35.15625 z"
         id="path16023" />
      <path
         d="m 2229.2908,760.47296 v -7.03125 h -14.0625 v -49.21875 h -14.0625 v 7.03125 h 7.0312 q 0,0 0,42.1875 h -14.0625 v 7.03125 z m -21.0938,-77.34375 q 0,0 0,14.0625 h 7.0313 q 0,0 0,-14.0625 z"
         id="path16025" />
      <path
         d="m 2250.3845,753.44171 v 7.03125 h 28.125 v -7.03125 z m 0,0 q 0,0 0,-42.1875 h -7.0312 q 0,0 0,42.1875 z m 28.125,0 h 7.0313 q 0,0 0,-42.1875 h -7.0313 q 0,0 0,42.1875 z m -28.125,-42.1875 h 28.125 v -7.03125 h -28.125 z"
         id="path16027" />
      <path
         d="m 2299.6033,704.22296 q 0,0 0,56.25 h 7.0312 q 0,0 0,-42.1875 h 7.0313 v -7.03125 h -7.0313 v -7.03125 z m 35.1562,7.03125 v 49.21875 h 7.0313 v -49.21875 z m -21.0937,0 h 21.0937 v -7.03125 h -21.0937 z"
         id="path16029" />
    </g>
    <g
       aria-label="16 colors
"
       id="text5153-7"
       style="font-size:112.5px;line-height:1.25;font-family:Unifont;-inkscape-font-specification:'Unifont, Normal';font-variant-ligatures:none;stroke-width:0.9375">
      <path
         d="m 2218.9392,887.40308 v -7.03125 h -14.0625 v -63.28125 h -7.0312 v 7.03125 h -7.0313 v 7.03125 h -7.0312 v 7.03125 h 7.0312 v -7.03125 h 7.0313 v 49.21875 h -14.0625 v 7.03125 z"
         id="path16032" />
      <path
         d="m 2268.158,824.12183 v -7.03125 h -21.0938 v 7.03125 h -7.0312 v 7.03125 h -7.0313 v 49.21875 h 7.0313 v 7.03125 h 28.125 v -7.03125 h -28.125 q 0,0 0,-28.125 h 28.125 q 0,0 0,28.125 h 7.0312 q 0,0 0,-28.125 h -7.0312 v -7.03125 h -28.125 q 0,0 0,-14.0625 h 7.0312 v -7.03125 z"
         id="path16034" />
      <path
         d="m 2387.6892,880.37183 v -7.03125 h -7.0312 v 7.03125 h -28.125 v 7.03125 h 28.125 v -7.03125 z m 0,-35.15625 v -7.03125 h -7.0312 v 7.03125 z m -35.1562,35.15625 q 0,0 0,-42.1875 h -7.0313 q 0,0 0,42.1875 z m 0,-42.1875 h 28.125 v -7.03125 h -28.125 z"
         id="path16036" />
      <path
         d="m 2408.783,880.37183 v 7.03125 h 28.125 v -7.03125 z m 0,0 q 0,0 0,-42.1875 h -7.0313 q 0,0 0,42.1875 z m 28.125,0 h 7.0312 q 0,0 0,-42.1875 h -7.0312 q 0,0 0,42.1875 z m -28.125,-42.1875 h 28.125 v -7.03125 h -28.125 z"
         id="path16038" />
      <path
         d="m 2500.1892,887.40308 v -7.03125 h -14.0625 q 0,0 0,-70.3125 h -14.0625 v 7.03125 h 7.0313 v 63.28125 h -14.0625 v 7.03125 z"
         id="path16040" />
      <path
         d="m 2521.283,880.37183 v 7.03125 h 28.125 v -7.03125 z m 0,0 q 0,0 0,-42.1875 h -7.0313 q 0,0 0,42.1875 z m 28.125,0 h 7.0312 q 0,0 0,-42.1875 h -7.0312 q 0,0 0,42.1875 z m -28.125,-42.1875 h 28.125 v -7.03125 h -28.125 z"
         id="path16042" />
      <path
         d="m 2570.5017,831.15308 q 0,0 0,56.25 h 7.0313 q 0,0 0,-42.1875 h 7.0312 v -7.03125 h -7.0312 v -7.03125 z m 35.1563,7.03125 q 0,0 0,14.0625 h 7.0312 q 0,0 0,-14.0625 z m -21.0938,0 h 21.0938 v -7.03125 h -21.0938 z"
         id="path16044" />
      <path
         d="m 2668.9392,845.21558 v -7.03125 h -7.0312 v 7.03125 z m -35.1562,35.15625 v 7.03125 h 28.125 v -7.03125 z m 0,0 v -7.03125 h -7.0313 v 7.03125 z m 28.125,0 h 7.0312 q 0,0 0,-14.0625 h -7.0312 q 0,0 0,14.0625 z m 0,-14.0625 v -7.03125 h -14.0625 v 7.03125 z m -14.0625,-7.03125 v -7.03125 h -14.0625 v 7.03125 z m -14.0625,-7.03125 q 0,0 0,-14.0625 h -7.0313 q 0,0 0,14.0625 z m 0,-14.0625 h 28.125 v -7.03125 h -28.125 z"
         id="path16046" />
    </g>
  </g>
</svg>
